# xmcd
#
# Track frame offsets:
#	150
#	20090
#	34567
#	53600
#	70190
#	86572
#	104105
#	118095
#	135035
#	153040
#	168597
#	185530
#
# Disc length: 2678 seconds
#
# Revision: 4
# Processed by: cddbd v1.4PL0 Copyright (c) Steve Scherf et al.
# Submitted via: dBpowerAMP V4.0
#
DISCID=960a740c
DTITLE=Cyrus, Billy Ray - The Best Of Billy Ray Cyrus - Cover To Cover
DYEAR=1997
DGENRE=Country
TTITLE0=It's All The Same To Me
TTITLE1=Cover To Cover
TTITLE2=Bluegrass State Of Mind
TTITLE3=Trail Of Tears
TTITLE4=One Last Thrill
TTITLE5=Storm In The Heartland
TTITLE6=Words By Heart
TTITLE7=Somebody New
TTITLE8=In The Heart Of A Women
TTITLE9=She's Not Cryin' Anymore
TTITLE10=Could've Been Me
TTITLE11=Achy Breaky Heart
EXTD=
EXTT0=
EXTT1=
EXTT2=
EXTT3=
EXTT4=
EXTT5=
EXTT6=
EXTT7=
EXTT8=
EXTT9=
EXTT10=
EXTT11=
PLAYORDER=
